<?xml version="1.0" encoding="utf-8"?>
<!-- Generator: Adobe Illustrator 23.0.5, SVG Export Plug-In . SVG Version: 6.00 Build 0)  -->
<svg version="1.1" id="Capa_1" xmlns="http://www.w3.org/2000/svg" xmlns:xlink="http://www.w3.org/1999/xlink" x="0px" y="0px"
	 viewBox="0 0 141.73 141.73" style="enable-background:new 0 0 141.73 141.73;" xml:space="preserve">
<style type="text/css">
	.st0{fill:#212121;}
</style>
<g>
	<path d="M71.16,16.26c30.23,0.05,54.7,24.55,54.68,54.75c-0.02,30.25-24.64,54.82-54.84,54.71c-30.24-0.11-54.68-24.64-54.61-54.81
		C16.45,40.68,40.98,16.21,71.16,16.26z"/>
</g>
<g>
	<path class="st0" d="M42.9,70.19c0.07-3.45-0.23-7.72,0.11-11.98c0.48-6,2.98-10.81,8.7-13.46c2.55-1.18,5.28-1.68,8.07-1.7
		c7.59-0.04,15.18-0.05,22.76,0c3.2,0.02,6.3,0.66,9.13,2.23c4.5,2.51,6.69,6.55,7.47,11.5c0.21,1.36,0.26,2.73,0.26,4.1
		c0,7.01,0,14.02-0.01,21.03c0,2.49-0.38,4.92-1.27,7.24c-2.14,5.57-6.4,8.45-12.11,9.45c-1.56,0.27-3.14,0.36-4.73,0.36
		c-7.1-0.01-14.2,0.02-21.3-0.02c-2.85-0.01-5.64-0.5-8.25-1.7c-5.14-2.36-7.7-6.58-8.56-12c-0.21-1.33-0.27-2.66-0.26-4.01
		C42.9,77.83,42.9,74.42,42.9,70.19z"/>
	<path d="M71.18,48.33c3.69,0,7.37-0.01,11.06,0c1.34,0,2.66,0.2,3.98,0.48c5,1.1,7.23,5.11,7.79,8.95
		c0.15,1.06,0.18,2.12,0.18,3.19c-0.01,6.92-0.01,13.84,0,20.76c0,1.75-0.22,3.46-0.83,5.11c-1.52,4.13-4.6,6.28-8.87,6.66
		c-5.32,0.47-10.66,0.25-15.99,0.27c-2.77,0.01-5.55-0.04-8.32-0.08c-1.44-0.02-2.85-0.2-4.25-0.52c-4.85-1.13-7.06-4.99-7.65-8.87
		c-0.16-1.03-0.19-2.06-0.19-3.1c0.01-7.01,0-14.02,0-21.03c0-1.69,0.23-3.34,0.81-4.93c1.51-4.13,4.58-6.24,8.85-6.71
		c3.7-0.4,7.43-0.18,11.14-0.27c0.76-0.02,1.52,0,2.29,0C71.18,48.27,71.18,48.3,71.18,48.33z"/>
	<path class="st0" d="M56.28,70.96c0.06-8.34,6.72-14.9,15.05-14.83c8.19,0.07,14.76,6.8,14.67,15.03
		c-0.08,8.18-6.78,14.77-14.92,14.69C62.81,85.78,56.22,79.15,56.28,70.96z"/>
	<path class="st0" d="M86.14,59.17c-1.69,0.02-3.04-1.3-3.03-2.97c0.01-1.63,1.33-2.94,2.97-2.95c1.64,0,2.96,1.3,2.98,2.93
		C89.08,57.8,87.77,59.15,86.14,59.17z"/>
	<path d="M71.14,61.41c5.3,0,9.57,4.26,9.59,9.56c0.02,5.32-4.32,9.65-9.64,9.61c-5.31-0.04-9.57-4.33-9.55-9.61
		C61.57,65.67,65.84,61.41,71.14,61.41z"/>
</g>
</svg>
