<?xml version="1.0" encoding="utf-8"?>
<!-- Generator: Adobe Illustrator 23.0.5, SVG Export Plug-In . SVG Version: 6.00 Build 0)  -->
<svg version="1.1" id="Capa_1" xmlns="http://www.w3.org/2000/svg" xmlns:xlink="http://www.w3.org/1999/xlink" x="0px" y="0px"
	 viewBox="0 0 141.73 141.73" style="enable-background:new 0 0 141.73 141.73;" xml:space="preserve">
<style type="text/css">
	.st0{fill:#212121;}
</style>
<g>
	<path d="M71.16,16.26c30.23,0.05,54.7,24.55,54.68,54.75c-0.02,30.25-24.64,54.82-54.84,54.71c-30.24-0.11-54.68-24.64-54.61-54.81
		C16.45,40.68,40.98,16.21,71.16,16.26z"/>
	<path class="st0" d="M75.78,87.5c0,4.3-0.02,8.59,0.02,12.89c0.01,0.75-0.13,1.04-0.97,1.02c-3.04-0.06-6.08-0.06-9.12,0
		c-0.84,0.02-0.97-0.27-0.97-1.02c0.02-8.55,0-17.11,0.04-25.66c0.01-1.02-0.28-1.29-1.28-1.26c-2.39,0.08-4.78,0-7.17,0.04
		c-0.74,0.01-0.98-0.19-0.97-0.95c0.04-3.12,0.04-6.24,0-9.36c-0.01-0.74,0.19-0.98,0.95-0.96c2.43,0.05,4.87-0.06,7.3,0.05
		c1.14,0.05,1.31-0.34,1.28-1.35c-0.07-2.92-0.03-5.84-0.02-8.76c0.02-5.97,5.67-11.61,11.63-11.61c3.08,0,6.16,0.08,9.24,0.02
		c0.96-0.02,1.14,0.3,1.12,1.17c-0.05,2.59-0.05,5.19,0,7.78c0.01,0.76-0.15,1.06-0.99,1.03c-2.02-0.07-4.05-0.04-6.08-0.04
		c-2.21,0.01-3.77,1.48-3.82,3.69c-0.05,2.43,0.02,4.87-0.04,7.3c-0.02,0.83,0.33,0.9,1,0.89c2.96-0.03,5.92,0.01,8.88-0.03
		c0.8-0.01,1.02,0.16,0.91,1c-0.39,3.05-0.72,6.11-1.01,9.18c-0.07,0.72-0.38,0.83-1.01,0.83c-2.59-0.03-5.19,0.03-7.78-0.03
		c-0.89-0.02-1.17,0.18-1.15,1.12C75.82,78.82,75.78,83.16,75.78,87.5z"/>
</g>
</svg>
