<?xml version="1.0" encoding="utf-8"?>
<!-- Generator: Adobe Illustrator 23.0.5, SVG Export Plug-In . SVG Version: 6.00 Build 0)  -->
<svg version="1.1" id="Capa_1" xmlns="http://www.w3.org/2000/svg" xmlns:xlink="http://www.w3.org/1999/xlink" x="0px" y="0px"
	 viewBox="0 0 141.73 141.73" style="enable-background:new 0 0 141.73 141.73;" xml:space="preserve">
<g>
	<path d="M84.38,123.92c0-6.71-0.11-13.15,0.04-19.59c0.11-4.82-0.08-9.46-3.88-13.26c2.86-0.81,5.33-1.34,7.67-2.21
		c14.72-5.48,20.67-21.55,12.91-35.21c-1.5-2.65-2.61-4.97-1.63-8.11c0.57-1.8,0.24-3.85-0.16-5.78c-1.09-5.27-1.6-5.58-6.71-3.78
		c-0.11,0.04-0.23,0.09-0.33,0.16c-5.93,4.64-12.56,4.35-19.48,3.11c-2.56-0.46-5.52-0.43-7.94,0.4c-4.4,1.5-7.88,0.31-11.49-2.03
		c-2.54-1.65-6.07-3.66-8.42-2.14c-2.46,1.6-2.62,5.76-1.96,8.79c0.84,3.88-0.37,6.78-2.03,10.16C34.54,67.49,38.53,86,59.84,90.46
		c0.56,0.12,1.14,0.19,2.05,0.34c-1.23,2.32-2.72,4.2-3.37,6.58c-0.59,2.17-4.49,2.46-6.99,0.74c-1.32-0.91-2.15-2.27-3.06-3.57
		c-2.28-3.27-5.07-5.85-9.22-6.6c-1.66-0.3-2.54-0.18-2.35,1.86c0.23,2.47-0.25,5.01,3.24,5.94c1.26,0.33,2.29,2.1,3.13,3.4
		c3.02,4.66,7.09,7.27,12.77,6.79c1.56-0.13,2.15,0.16,2.12,1.85c-0.09,5.33-0.03,10.65-0.03,16.04
		c-26.05-6.17-44.37-31.99-41.43-58.12c3.15-28.03,25.72-49.17,52.98-49.65c27.69-0.49,51.95,19.53,55.58,45.86
		C129.25,90.89,112.73,116.16,84.38,123.92z"/>
</g>
</svg>
