<?xml version="1.0" encoding="utf-8"?>
<!-- Generator: Adobe Illustrator 23.0.5, SVG Export Plug-In . SVG Version: 6.00 Build 0)  -->
<svg version="1.1" id="Capa_1" xmlns="http://www.w3.org/2000/svg" xmlns:xlink="http://www.w3.org/1999/xlink" x="0px" y="0px"
	 viewBox="0 0 141.73 141.73" style="enable-background:new 0 0 141.73 141.73;" xml:space="preserve">
<style type="text/css">
	.st0{fill:#212121;}
</style>
<g>
	<path d="M71.16,16.26c30.23,0.05,54.7,24.55,54.68,54.75c-0.02,30.25-24.64,54.82-54.84,54.71c-30.24-0.11-54.68-24.64-54.61-54.81
		C16.45,40.68,40.98,16.21,71.16,16.26z"/>
</g>
<path class="st0" d="M89.61,102.65c-2.97,0-5.5-0.63-8.01-1.39c-8.37-2.52-16.16-6.13-22.87-11.88
	c-6.04-5.17-11.09-11.19-15.56-17.73c-2.75-4.01-4.98-8.27-5.76-13.11c-1.06-6.62,0.65-12.45,5.58-17.15c2.25-2.14,5.11-2.19,8.01-2
	c1.45,0.09,2.46,0.7,3.03,2.06c1.94,4.64,3.91,9.27,5.84,13.92c0.68,1.63-0.2,2.91-1.14,4.09c-1,1.26-2.12,2.42-3.18,3.63
	c-1.49,1.7-1.55,2.38-0.38,4.28c4.26,6.94,9.72,12.67,16.87,16.68c1.69,0.95,3.44,1.79,5.25,2.48c2.23,0.85,3.57,0.52,5.01-1.34
	c1.19-1.53,2.34-3.1,3.49-4.67c1.51-2.05,2.8-2.43,5.11-1.42c4.3,1.89,8.47,4.06,12.7,6.09c1.07,0.52,1.53,1.29,1.49,2.49
	c-0.23,7.56-3.04,11.41-11.08,14.24C92.51,102.45,90.92,102.72,89.61,102.65z"/>
<polyline points="30.81,105.49 23.64,128.53 46.92,119.68 "/>
</svg>
